<?xml version="1.0" encoding="UTF-8" standalone="no"?>
<svg
   enable-background="new"
   height="50.999832"
   viewBox="0 0 240.15759 50.999832"
   width="240.15759"
   version="1.1"
   id="svg20"
   sodipodi:docname="docs_logo.svg"
   inkscape:version="1.3 (0e150ed6c4, 2023-07-21)"
   xmlns:inkscape="http://www.inkscape.org/namespaces/inkscape"
   xmlns:sodipodi="http://sodipodi.sourceforge.net/DTD/sodipodi-0.dtd"
   xmlns="http://www.w3.org/2000/svg"
   xmlns:svg="http://www.w3.org/2000/svg">
  <defs
     id="defs20" />
  <sodipodi:namedview
     id="namedview20"
     pagecolor="#ffffff"
     bordercolor="#000000"
     borderopacity="0.25"
     inkscape:showpageshadow="2"
     inkscape:pageopacity="0.0"
     inkscape:pagecheckerboard="0"
     inkscape:deskcolor="#d1d1d1"
     inkscape:zoom="5.2548828"
     inkscape:cx="102.57127"
     inkscape:cy="26.927337"
     inkscape:window-width="1920"
     inkscape:window-height="1009"
     inkscape:window-x="-8"
     inkscape:window-y="-8"
     inkscape:window-maximized="1"
     inkscape:current-layer="svg20" />
  <linearGradient
     id="a"
     gradientTransform="matrix(.86836616 0 0 -.86836616 19.116688 354.85379)"
     gradientUnits="userSpaceOnUse"
     x1="-50.169083"
     x2="266.50421"
     y1="214.34602"
     y2="111.7482">
    <stop
       offset="0"
       stop-color="#ff4e78"
       id="stop1" />
    <stop
       offset="1"
       stop-color="#f67b7b"
       id="stop2" />
  </linearGradient>
  <g
     transform="translate(39.50845 -202.73825)"
     id="g20">
    <path
       d="m-36.352685 214.76907 7.898437 13.27148c.249807.35818.249807.83323 0 1.19141l-7.898437 13.81445h69.406895l-.04164-28.22204zm212.441675-8.88051v28.27734h21.4043l-7.89844-13.81445c-.24981-.35818-.24981-.83323 0-1.19141l7.89649-13.27148zm-143.076606 8.93571.04183 28.22214c1.916785-1.92132 5.311962-4.63213 11.911452-4.63213v-.002l122.410154-.002c4.65321-.0933 8.2618-3.35204 8.71337-4.24438l-.0002-28.27734c-1.88269 1.61766-4.96029 4.27519-8.61161 4.24438v.006h-.16897c-.0115.00003-122.342784.002-122.342784.002-4.820702-.11635-9.145109.60314-11.953048 4.68343z"
       fill="#ff3252"
       stroke-linecap="round"
       stroke-linejoin="round"
       stroke-miterlimit="3.85"
       stroke-width="6.3"
       id="path2" />
    <path
       d="m176.37136 202.73827c-3.74647 0-4.12033 4.24977-8.90455 4.24977-1.16134-.006-122.501906.002-122.501906.002l.07617.002c-2.589638-.0625-5.227607.0743-7.798829.92773-2.02404.67183-3.885155 2.01591-5.498046 3.75195l-68.09375-.0527c-2.444709-.002-3.959469 2.66103-2.708985 4.76172l7.304688 12.27539-7.333985 12.82617c-1.20168 2.10019.314696 4.71486 2.734375 4.71485h69.408203c.764871-.0379 1.489744-.35313 2.58917-1.44664 1.099427-1.09351 3.5841-3.18621 9.320987-3.18621 1.739929.00004 3.15041-.002 3.15041-.002l122.019048-.0205c1.86832-.0185 4.80158-1.38781 6.53257-4.22564h20.82722c2.41968.00002 3.93606-2.61466 2.73438-4.71485l-7.334-12.82595 7.30469-12.27539c1.25004-2.09994-.26319-4.76174-2.70703-4.76172z"
       fill="#293252"
       stroke-linecap="round"
       stroke-linejoin="round"
       stroke-miterlimit="3.85"
       id="path3" />
    <path
       d="m-36.352483 214.76907 7.898437 13.27148c.249807.35818.249807.83323 0 1.19141l-7.898437 13.81445h67.294674v-28.27734zm212.441673-8.88051v28.27734h21.4043l-7.89844-13.81445c-.24981-.35818-.24981-.83323 0-1.19141l7.89649-13.27148zm-143.061061 9.13658-.000031 27.78894c.0083.0578.01128.11542.0098.17383 3.823563-4.01646 5.328272-4.57363 11.927766-4.57363v-.002l122.410156-.002c4.65321-.0933 6.10098-1.97074 6.55255-2.86308v-27.20191c-1.88269 1.61766-2.79967 1.81846-6.45099 1.78765v.006h-.13477c-.0115.00003-.0217.002-.0332.002-.0113-.00048-.0239-.00095-.0352-.002l-122.308586.002c-5.051311 0-7.839192-.026-11.9375 4.8843z"
       fill="url(#a)"
       id="path4" />
    <path
       d="m44.909662 217.67132c-4.068148 0-7.023112 2.75578-7.023112 6.60501s2.953824 6.6032 6.967244 6.6032c1.824284 0 3.758562-.56569 5.163258-1.62377v-5.18128h-2.699672v3.73954c-.747954.40134-1.495101.54786-2.297784.54786-2.444539 0-4.141421-1.69575-4.141421-4.08555 0-2.4263 1.69644-4.08735 4.177464-4.08735 1.29524 0 2.371218.45663 3.301602 1.44175l1.897702-1.75173c-1.240513-1.44119-3.101413-2.20768-5.345281-2.20768zm14.037215 0c-4.031664 0-6.987069 2.8105-6.987069 6.60501s2.955405 6.6032 6.987069 6.6032c4.013423 0 6.98707-2.79045 6.98707-6.6032 0-3.81276-2.973647-6.60501-6.98707-6.60501zm30.464124 0c-4.03166 0-6.98707 2.8105-6.98707 6.60501s2.95541 6.6032 6.98707 6.6032c4.01342 0 6.98707-2.79045 6.98707-6.6032 0-3.81276-2.97365-6.60501-6.98707-6.60501zm46.710809 0c-4.03167 0-6.98707 2.8105-6.98707 6.60501s2.9554 6.6032 6.98707 6.6032c4.01342 0 6.98707-2.79045 6.98707-6.6032 0-3.81276-2.97365-6.60501-6.98707-6.60501zm15.33839 0c-3.97694 0-6.93301 2.75578-6.93301 6.60501s2.95629 6.6032 6.91499 6.6032c2.22563 0 4.06736-.8021 5.27139-2.27977l-1.8959-1.75171c-.85742 1.00335-1.9345 1.51383-3.21149 1.51383-2.38981 0-4.08556-1.6775-4.08556-4.08555s1.69575-4.08735 4.08556-4.08735c1.27699 0 2.35407.51069 3.21149 1.49581l1.8959-1.74992c-1.20403-1.45942-3.04599-2.26355-5.25337-2.26355zm11.75925 0c-3.63032 0-5.38132 1.80652-5.38132 3.97743 0 4.74313 7.4232 3.10145 7.4232 5.49125 0 .78443-.71048 1.36786-2.46179 1.36786-1.5324 0-3.13718-.54737-4.2135-1.33182l-1.00382 2.2257c1.13106.87565 3.17435 1.47779 5.19929 1.47779 3.64857 0 5.41737-1.82499 5.41737-3.95939 0-4.68841-7.42499-3.06405-7.42499-5.41737 0-.80268.67623-1.45977 2.42754-1.45977 1.13105 0 2.35191.32883 3.53769 1.00382l.9119-2.24372c-1.18578-.74795-2.82621-1.13178-4.43157-1.13178zm-95.065212.21987v12.77028h5.801233c4.17761 0 7.04293-2.51766 7.04293-6.38514s-2.86532-6.38514-7.04293-6.38514zm28.845763 0v2.40772h4.085539v10.36256h2.95558v-10.36256h4.08735v-2.40772zm17.866839 0v12.77028h5.80123c4.1776 0 7.04114-2.51766 7.04115-6.38514 0-3.86748-2.86355-6.38514-7.04115-6.38514zm-55.919962 2.29779c2.280352 0 3.995443 1.66105 3.995443 4.08735 0 2.42629-1.715091 4.08555-3.995443 4.08555-2.280353 0-3.995442-1.65926-3.995444-4.08555 0-2.4263 1.715091-4.08735 3.995444-4.08735zm30.464123 0c2.28035 0 3.99545 1.66105 3.99545 4.08735 0 2.42629-1.7151 4.08555-3.99545 4.08555s-3.99544-1.65926-3.99544-4.08555c0-2.4263 1.71509-4.08735 3.99544-4.08735zm46.710809 0c2.28034 0 3.99544 1.66105 3.99544 4.08735 0 2.42629-1.7151 4.08555-3.99544 4.08555-2.28036 0-3.99365-1.65926-3.99365-4.08555 0-2.4263 1.71329-4.08735 3.99365-4.08735zm-65.011991.12795h2.699672c2.53575 0 4.19729 1.51486 4.19729 3.9594s-1.66154 3.95759-4.19729 3.95759h-2.699672zm46.712601 0h2.69967c2.53575 0 4.1955 1.51486 4.1955 3.9594s-1.65975 3.95759-4.1955 3.95759h-2.69967z"
       fill="#fff"
       id="path5" />
    <ellipse
       cx=".233013"
       cy="229.00215"
       fill="#293252"
       rx="24.748463"
       ry="24.735935"
       id="ellipse5" />
    <g
       enable-background="new"
       transform="matrix(1.7588361,0,0,1.7588361,-46.364733,-245.76638)"
       id="g15"
       style="display:inline;fill:#586ac5;fill-opacity:1">
      <g
         fill="#ffffff"
         id="g8"
         style="fill:#586ac5;fill-opacity:1">
        <path
           d="m 24.731945,267.9692 -1.749525,0.43739 v 0.43738 l 1.049886,0.39382 -1.049886,0.26225 v 0.43738 l 1.049886,0.39381 -1.049886,0.26226 v 0.43738 l 1.749525,-0.43738 v -0.43738 l -1.049886,-0.39381 1.049886,-0.26226 v -0.43738 l -1.049886,-0.39382 1.049886,-0.26225 z"
           fill-opacity="0.358268"
           stroke-width="0.218691"
           id="path6"
           style="fill:#586ac5;fill-opacity:1" />
        <path
           d="m 24.607903,260.75891 c -0.846877,0.18827 -1.684477,0.45037 -2.469901,0.8457 0.01796,0.69353 0.06278,1.35805 0.153668,2.03305 -0.305022,0.19542 -0.625563,0.36315 -0.91046,0.59193 -0.289472,0.22269 -0.584991,0.43543 -0.847104,0.69587 -0.523643,-0.34634 -1.078091,-0.67181 -1.649051,-0.9591 -0.61545,0.66235 -1.190863,1.37728 -1.660953,2.17725 0.353669,0.57213 0.72288,1.10862 1.121537,1.61755 h 0.0112 v 3.95093 0.50196 0.45681 l -0.0039,0.64933 h -10e-4 c 0.0013,0.29089 0.0049,0.60934 0.0049,0.67278 0,2.85846 3.625997,4.23233 8.131143,4.24812 h 0.0055 0.0055 c 4.505145,-0.0158 8.130091,-1.38966 8.130093,-4.24812 0,-0.0646 0.004,-0.38173 0.0053,-0.67278 h -9.92e-4 l -0.0042,-0.64933 v -0.39169 l 9.92e-4,-7.1e-4 v -4.5173 h 0.01121 c 0.398741,-0.50893 0.767702,-1.04542 1.121538,-1.61755 -0.469922,-0.79997 -1.045854,-1.5149 -1.661302,-2.17725 -0.570795,0.28729 -1.125059,0.61276 -1.648702,0.9591 -0.262031,-0.26044 -0.557216,-0.47318 -0.847103,-0.69587 -0.284816,-0.22878 -0.605671,-0.39651 -0.910112,-0.59193 0.09064,-0.675 0.135275,-1.33952 0.153319,-2.03305 -0.785506,-0.39533 -1.622958,-0.65743 -2.470251,-0.8457 -0.338285,0.56855 -0.647682,1.18403 -0.917112,1.78592 -0.319492,-0.0533 -0.640515,-0.0731 -0.961917,-0.077 v -3.4e-4 c -0.0022,0 -0.0044,3.4e-4 -0.0064,3.4e-4 -0.002,0 -0.0039,-3.4e-4 -0.006,-3.4e-4 v 3.4e-4 c -0.321987,0.004 -0.642694,0.0236 -0.962267,0.077 -0.269265,-0.60189 -0.578679,-1.21737 -0.917463,-1.78592 z"
           stroke="#ffffff"
           stroke-linejoin="round"
           stroke-width="1.23982"
           id="path7"
           style="fill:#586ac5;fill-opacity:1" />
        <path
           d="m 34.629216,272.67078 c 0,0 -0.02703,-0.16582 -0.04283,-0.16432 l -3.008808,0.2903 c -0.23941,0.0231 -0.425351,0.21404 -0.44215,0.45395 l -0.08266,1.18475 -2.327747,0.16607 -0.158333,-1.07374 c -0.03525,-0.23883 -0.243818,-0.41886 -0.485224,-0.41886 h -3.175623 c -0.241322,0 -0.449882,0.18003 -0.485141,0.41886 l -0.158415,1.07374 -2.327748,-0.16607 -0.08266,-1.18475 c -0.0168,-0.24 -0.202738,-0.43092 -0.442149,-0.45404 l -3.010305,-0.29021 c -0.01555,-0.002 -0.02694,0.16448 -0.04249,0.16448 l -0.0041,0.65112 2.549445,0.41114 0.08349,1.1953 c 0.01689,0.242 0.212134,0.43766 0.454289,0.45504 l 3.205808,0.22868 c 0.01213,6.8e-4 0.02412,0.002 0.03609,0.002 0.240907,0 0.449134,-0.18012 0.484392,-0.41895 l 0.162905,-1.10483 h 2.32883 l 0.162906,1.10483 c 0.03517,0.23876 0.24365,0.41887 0.484891,0.41887 0.0118,0 0.02362,-4.2e-4 0.03517,-0.002 l 3.206224,-0.22868 c 0.242072,-0.0174 0.437408,-0.21305 0.45429,-0.45505 l 0.0834,-1.1953 2.548365,-0.41296 z"
           id="path8"
           style="fill:#586ac5;fill-opacity:1" />
      </g>
      <path
         d="m 18.356904,267.76107 v 3.95115 0.50185 0.45671 c 0.009,7e-5 0.01796,4.1e-4 0.02686,0.002 l 3.009973,0.29022 c 0.157667,0.0153 0.281238,0.14212 0.292215,0.30012 l 0.0928,1.32869 2.625618,0.18736 0.180867,-1.22632 c 0.02345,-0.159 0.15983,-0.27684 0.320656,-0.27684 h 3.175623 c 0.160743,0 0.297122,0.11784 0.320573,0.27684 l 0.180867,1.22632 2.625701,-0.18736 0.09272,-1.32869 c 0.01106,-0.158 0.134549,-0.28481 0.292216,-0.30012 l 3.008807,-0.29022 c 0.0089,-6.8e-4 0.0178,-0.002 0.02677,-0.002 v -0.39177 l 0.0013,-4.1e-4 v -4.51753 h 0.01115 c 0.39874,-0.50893 0.767711,-1.04521 1.121546,-1.61733 -0.469923,-0.79999 -1.045706,-1.51488 -1.661156,-2.17724 -0.570794,0.28731 -1.125206,0.61279 -1.648848,0.95914 -0.262031,-0.26045 -0.557157,-0.47351 -0.847044,-0.69619 -0.284815,-0.22878 -0.605803,-0.3965 -0.910244,-0.59192 0.09064,-0.67498 0.135464,-1.3395 0.15351,-2.03303 -0.785507,-0.39534 -1.623154,-0.65745 -2.470446,-0.84572 -0.338285,0.56855 -0.647632,1.18425 -0.917062,1.78613 -0.319492,-0.0534 -0.64048,-0.0731 -0.961884,-0.077 v -4.9e-4 c -0.0022,0 -0.0043,4.9e-4 -0.0063,4.9e-4 -0.002,0 -0.0041,-4.9e-4 -0.0061,-4.9e-4 v 4.9e-4 c -0.321987,0.004 -0.642725,0.0236 -0.962301,0.077 -0.269264,-0.60188 -0.578443,-1.21758 -0.917228,-1.78613 -0.846877,0.18827 -1.684607,0.45038 -2.47003,0.84572 0.01796,0.69353 0.06279,1.35805 0.153675,2.03303 -0.305021,0.19542 -0.625594,0.36314 -0.910492,0.59192 -0.289472,0.22268 -0.585097,0.43574 -0.84721,0.69619 -0.523643,-0.34635 -1.077889,-0.67183 -1.648848,-0.95914 -0.61545,0.66236 -1.1909,1.37725 -1.66099,2.17724 0.353669,0.57212 0.722889,1.1084 1.121546,1.61733 z"
         fill="#478cbf"
         id="path9"
         style="fill:#586ac5;fill-opacity:1" />
      <path
         d="m 31.928906,273.58116 -0.09322,1.33575 c -0.01122,0.161 -0.139289,0.28915 -0.300282,0.30071 l -3.206141,0.22875 c -0.0078,6e-4 -0.01564,6.9e-4 -0.02337,6.9e-4 -0.159329,0 -0.296788,-0.11692 -0.320322,-0.27692 l -0.183862,-1.24686 h -2.616055 l -0.183861,1.24686 c -0.0247,0.16782 -0.174714,0.28847 -0.34369,0.27608 l -3.206142,-0.22876 c -0.160991,-0.0116 -0.289055,-0.13971 -0.300281,-0.3007 l -0.09322,-1.33576 -2.706531,-0.26094 c 0.0013,0.29088 0.005,0.60953 0.005,0.67299 0,2.85845 3.626087,4.23239 8.131233,4.24818 h 0.0055 0.0055 c 4.505145,-0.0158 8.129985,-1.38973 8.129985,-4.24818 0,-0.0646 0.004,-0.38195 0.0052,-0.67299 z"
         fill="#478cbf"
         id="path10"
         style="fill:#586ac5;fill-opacity:1" />
      <path
         d="m 24.040751,269.75408 c 0,1.00222 -0.812033,1.81409 -1.813917,1.81409 -1.001383,0 -1.813666,-0.81187 -1.813666,-1.81409 0,-1.00155 0.812283,-1.81301 1.813666,-1.81301 1.001884,0 1.813917,0.81146 1.813917,1.81301"
         fill="#ffffff"
         id="path11"
         style="fill:#586ac5;fill-opacity:1" />
      <path
         d="m 23.604291,269.86167 c 0,0.66477 -0.538779,1.20353 -1.20404,1.20353 -0.664928,0 -1.204038,-0.53876 -1.204038,-1.20353 0,-0.66476 0.53911,-1.20403 1.204038,-1.20403 0.665261,0 1.20404,0.53927 1.20404,1.20403"
         fill="#293252"
         id="path12"
         style="fill:#586ac5;fill-opacity:1" />
      <path
         d="m 26.493534,271.73319 c -0.322485,0 -0.58385,-0.23766 -0.58385,-0.53061 v -1.6699 c 0,-0.29271 0.261365,-0.53063 0.58385,-0.53063 0.322485,0 0.584432,0.23792 0.584432,0.53063 v 1.6699 c 0,0.29295 -0.261947,0.53061 -0.584432,0.53061"
         fill="#ffffff"
         id="path13"
         style="fill:#586ac5;fill-opacity:1" />
      <path
         d="m 28.946618,269.75408 c 0,1.00222 0.812033,1.81409 1.814082,1.81409 1.0013,0 1.813501,-0.81187 1.813501,-1.81409 0,-1.00155 -0.812201,-1.81301 -1.813501,-1.81301 -1.002049,0 -1.814082,0.81146 -1.814082,1.81301"
         fill="#ffffff"
         id="path14"
         style="fill:#586ac5;fill-opacity:1" />
      <path
         d="m 29.383186,269.86167 c 0,0.66477 0.538613,1.20353 1.203374,1.20353 0.665427,0 1.204039,-0.53876 1.204039,-1.20353 0,-0.66476 -0.538612,-1.20403 -1.204039,-1.20403 -0.664761,0 -1.203374,0.53927 -1.203374,1.20403"
         fill="#293252"
         id="path15"
         style="fill:#586ac5;fill-opacity:1" />
    </g>
    <circle
       cx="229.01976"
       cy="-.233496"
       r="21.652594"
       style="fill:none;stroke:#738ed7;stroke-width:.740435;stroke-linecap:round;stroke-miterlimit:3.9;stroke-dasharray:.740435 2.665566;stroke-dashoffset:6.737958"
       transform="rotate(90)"
       id="circle15" />
    <circle
       cx=".23356"
       cy="229.0197"
       r="23.505161"
       style="fill:none;stroke:#506dbd;stroke-width:.634659;stroke-linejoin:round;stroke-miterlimit:3.8;stroke-dashoffset:37.7953"
       id="circle16" />
    <g
       transform="matrix(.27986668 0 0 .27986668 -27.753655 203.56217)"
       id="g19">
      <path
         d="m72.289268 68.070186a22.057718 22.057718 0 0 0 -22.057054 22.057054 22.057718 22.057718 0 0 0 22.057054 22.05706 22.057718 22.057718 0 0 0 22.059082-22.05706 22.057718 22.057718 0 0 0 -.336625-3.700849c2.136946-2.387488 4.183142-3.363887 5.972053-3.352055 1.804312.01188 3.824732.995357 5.951782 3.631901a22.057718 22.057718 0 0 0 -.27985 3.421003 22.057718 22.057718 0 0 0 22.05706 22.05706 22.057718 22.057718 0 0 0 22.05907-22.05706 22.057718 22.057718 0 0 0 -22.05907-22.057054 22.057718 22.057718 0 0 0 -20.30094 13.489337c-2.2562-1.993602-4.75752-3.123715-7.39561-3.141158-2.670117-.01767-5.189825 1.08572-7.472668 2.987041a22.057718 22.057718 0 0 0 -20.254284-13.33522zm0 4.432905a17.625065 17.625065 0 0 1 17.626175 17.624149 17.625065 17.625065 0 0 1 -17.626175 17.62618 17.625065 17.625065 0 0 1 -17.624147-17.62618 17.625065 17.625065 0 0 1 17.624147-17.624149zm55.423502 0a17.625065 17.625065 0 0 1 17.62617 17.624149 17.625065 17.625065 0 0 1 -17.62617 17.62618 17.625065 17.625065 0 0 1 -17.62415-17.62618 17.625065 17.625065 0 0 1 17.62415-17.624149z"
         fill="#293252"
         id="path16" />
      <g
         fill="#fff"
         fill-opacity=".370558"
         id="g18">
        <circle
           cx="72.28994"
           cy="90.12748"
           r="17.625067"
           id="circle17" />
        <circle
           cx="127.71365"
           cy="90.12748"
           r="17.625067"
           id="circle18" />
      </g>
    </g>
  </g>
</svg>
